HIERARCHY
ROOT Hips
{
	OFFSET 0.00000 0.00000 0.00000
	CHANNELS 6 Xposition Yposition Zposition Zrotation Yrotation Xrotation 
	JOINT LHipJoint
	{
		OFFSET 0 0 0
		CHANNELS 3 Zrotation Yrotation Xrotation
		JOINT LeftUpLeg
		{
			OFFSET 1.40001 -1.72600 0.84541
			CHANNELS 3 Zrotation Yrotation Xrotation
			JOINT LeftLeg
			{
				OFFSET 2.34760 -6.44999 0.00000
				CHANNELS 3 Zrotation Yrotation Xrotation
				JOINT LeftFoot
				{
					OFFSET 2.50650 -6.88655 0.00000
					CHANNELS 3 Zrotation Yrotation Xrotation
					JOINT LeftToeBase
					{
						OFFSET 0.12464 -0.34243 1.95563
						CHANNELS 3 Zrotation Yrotation Xrotation
						End Site
						{
							OFFSET 0.00000 -0.00000 1.00479
						}
					}
				}
			}
		}
	}
	JOINT RHipJoint
	{
		OFFSET 0 0 0
		CHANNELS 3 Zrotation Yrotation Xrotation
		JOINT RightUpLeg
		{
			OFFSET -1.40958 -1.72600 0.84541
			CHANNELS 3 Zrotation Yrotation Xrotation
			JOINT RightLeg
			{
				OFFSET -2.37905 -6.53640 0.00000
				CHANNELS 3 Zrotation Yrotation Xrotation
				JOINT RightFoot
				{
					OFFSET -2.50470 -6.88163 0.00000
					CHANNELS 3 Zrotation Yrotation Xrotation
					JOINT RightToeBase
					{
						OFFSET -0.12236 -0.33619 1.81785
						CHANNELS 3 Zrotation Yrotation Xrotation
						End Site
						{
							OFFSET -0.00000 -0.00000 0.93746
						}
					}
				}
			}
		}
	}
	JOINT LowerBack
	{
		OFFSET 0 0 0
		CHANNELS 3 Zrotation Yrotation Xrotation
		JOINT Spine
		{
			OFFSET -0.02146 1.96915 0.26424
			CHANNELS 3 Zrotation Yrotation Xrotation
			JOINT Spine1
			{
				OFFSET 0.01522 1.99484 0.02086
				CHANNELS 3 Zrotation Yrotation Xrotation
				JOINT Neck
				{
					OFFSET 0 0 0
					CHANNELS 3 Zrotation Yrotation Xrotation
					JOINT Neck1
					{
						OFFSET -0.02954 1.71757 0.03505
						CHANNELS 3 Zrotation Yrotation Xrotation
						JOINT Head
						{
							OFFSET 0.04170 1.65781 -0.11024
							CHANNELS 3 Zrotation Yrotation Xrotation
							End Site
							{
								OFFSET 0.01600 1.81465 -0.05144
							}
						}
					}
				}
				JOINT LeftShoulder
				{
					OFFSET 0 0 0
					CHANNELS 3 Zrotation Yrotation Xrotation
					JOINT LeftArm
					{
						OFFSET 2.77679 1.60868 -0.78649
						CHANNELS 3 Zrotation Yrotation Xrotation
						JOINT LeftForeArm
						{
							OFFSET 4.62672 -0.00000 -0.00000
							CHANNELS 3 Zrotation Yrotation Xrotation
							JOINT LeftHand
							{
								OFFSET 3.11018 -0.00000 -0.00000
								CHANNELS 3 Zrotation Yrotation Xrotation
								JOINT LeftFingerBase
								{
									OFFSET 0 0 0
									CHANNELS 3 Zrotation Yrotation Xrotation
									JOINT LeftHandIndex1
									{
										OFFSET 0.74383 -0.00000 -0.00000
										CHANNELS 3 Zrotation Yrotation Xrotation
										End Site
										{
											OFFSET 0.59970 -0.00000 -0.00000
										}
									}
								}
								JOINT LThumb
								{
									OFFSET 0 0 0
									CHANNELS 3 Zrotation Yrotation Xrotation
									End Site
									{
										OFFSET 0.60885 -0.00000 0.60885
									}
								}
							}
						}
					}
				}
				JOINT RightShoulder
				{
					OFFSET 0 0 0
					CHANNELS 3 Zrotation Yrotation Xrotation
					JOINT RightArm
					{
						OFFSET -2.73247 1.63658 -0.74740
						CHANNELS 3 Zrotation Yrotation Xrotation
						JOINT RightForeArm
						{
							OFFSET -4.55919 -0.00000 -0.00000
							CHANNELS 3 Zrotation Yrotation Xrotation
							JOINT RightHand
							{
								OFFSET -3.22748 -0.00000 -0.00000
								CHANNELS 3 Zrotation Yrotation Xrotation
								JOINT RightFingerBase
								{
									OFFSET 0 0 0
									CHANNELS 3 Zrotation Yrotation Xrotation
									JOINT RightHandIndex1
									{
										OFFSET -0.70088 -0.00000 -0.00000
										CHANNELS 3 Zrotation Yrotation Xrotation
										End Site
										{
											OFFSET -0.56507 -0.00000 -0.00000
										}
									}
								}
								JOINT RThumb
								{
									OFFSET 0 0 0
									CHANNELS 3 Zrotation Yrotation Xrotation
									End Site
									{
										OFFSET -0.57370 -0.00000 0.57370
									}
								}
							}
						}
					}
				}
			}
		}
	}
}
MOTION
Frames: 8
Frame Time: .0083333
-0.4807 16.4116 -42.6325 0 0 0 0 0 0 -21 0 0 0 0 0 0 0 0 0 0 0 0 0 0 21 0 0 0 0 0 0 0 0 0 0 0 0 0 0 0 0 0 0 0 0 0 0 -16 0 0 21 0 0 11 0 0 0 -8 0 0 0 0 0 0 0 0 0 0 0 0 0 0 0 0 0 0 0 0 8 0 0 0 0 0 0 0 0 0 0 0 0 0 0 0 0 0
-0.4807 16.4116 -42.6325 -0.6264 2.9813 17.8110 0.0000 0.0000 0.0000 -15.7414 -9.1592 -31.7660 14.2327 19.1831 72.9138 0.0263 0.0877 3.0311 0.3014 -3.5302 -9.7584 0.0000 0.0000 0.0000 23.2789 7.7850 -36.9814 -4.1016 -12.2944 36.7816 -0.9484 7.8156 -17.4349 -0.3372 3.7315 -10.3224 2.0932 -0.1384 -15.5474 2.4240 -0.6092 -4.7909 1.2519 -0.2910 3.6334 0.9328 -2.0168 -2.0715 -2.8194 -2.5822 5.5644 -1.1091 -1.3379 2.0458 -0.0000 0.0000 0.0000 -88.2369 5.5621 29.8471 21.5726 -32.4906 -6.3547 -0.0000 0.0000 -4.5115 24.4809 -18.5108 -8.2255 -7.1250 0.0000 -0.0000 -2.3742 9.7962 1.9374 -0.0000 0.0000 0.0000 90.9278 -6.5523 -14.7003 -8.3454 14.1113 -1.0347 0.0000 0.0000 20.0559 -17.6824 -33.2401 9.9124 7.1250 -0.0000 -0.0000 18.3763 -63.5903 -8.4275
-0.5018 16.4319 -42.4559 -0.3716 3.2269 18.2944 0.0000 0.0000 0.0000 -15.5683 -10.0331 -34.0984 14.3302 19.2111 73.2103 0.0108 0.0459 1.9450 0.2024 -2.8971 -7.9924 0.0000 0.0000 0.0000 23.1632 7.6917 -36.6455 -4.0559 -12.2345 36.5665 -1.0078 7.5998 -17.9486 -0.3276 3.6786 -10.1743 1.6172 -0.3308 -16.0654 2.3963 -0.8242 -4.2058 1.4510 -0.3946 4.5385 1.1881 -1.8665 -4.6395 -3.0358 -2.3774 6.2944 -1.2744 -1.2565 2.7605 -0.0000 -0.0000 0.0000 -88.4617 4.4786 29.1991 20.4696 -31.2040 -5.7727 -0.0000 0.0000 -4.1615 23.7036 -17.1119 -7.3610 -7.1250 0.0000 -0.0000 -2.7651 11.4122 2.1659 -0.0000 -0.0000 0.0000 90.7837 -3.8874 -10.3446 -8.7920 14.8284 -1.1463 0.0000 0.0000 16.7631 -18.9126 -33.6881 10.7603 7.1250 -0.0000 -0.0000 17.3846 -64.3438 -8.2638
-0.5010 16.4490 -42.2571 -0.6462 2.2812 18.3268 0.0000 0.0000 0.0000 -15.4669 -9.5184 -35.8230 14.2658 19.1927 73.0146 0.0010 0.1013 0.5722 0.2058 -2.9207 -8.0580 0.0000 0.0000 0.0000 23.4513 7.8584 -35.6356 -3.9956 -12.1545 36.2809 -1.0468 8.2508 -18.3308 -0.2517 3.2281 -8.9145 1.9525 0.0587 -15.7677 2.2496 -0.3377 -4.5089 1.1992 -0.1555 4.0474 1.3133 -1.8419 -4.3506 -3.1385 -2.3350 6.7933 -1.3316 -1.2359 2.8740 -0.0000 0.0000 0.0000 -88.5160 5.6254 28.7805 19.5099 -30.0474 -5.2837 -0.0000 0.0000 -4.0061 23.4234 -14.9033 -6.3577 -7.1250 0.0000 -0.0000 -2.7938 13.8192 2.0481 -0.0000 0.0000 0.0000 90.8104 -3.4990 -6.0818 -9.4435 15.8644 -1.3187 0.0000 0.0000 13.1965 -19.7213 -32.7667 10.9796 7.1250 -0.0000 -0.0000 15.6428 -63.6829 -7.1741
-0.5079 16.4499 -42.0769 -0.7904 1.6004 18.8067 0.0000 0.0000 0.0000 -15.2936 -9.3870 -38.0737 14.1635 19.1629 72.7032 0.0007 0.2460 -0.6571 0.1371 -2.3862 -6.5742 0.0000 0.0000 0.0000 23.6394 7.9421 -35.2167 -3.9101 -12.0397 35.8727 -1.0506 8.9526 -18.4288 -0.1755 2.6987 -7.4411 1.7556 0.2672 -16.1569 2.3846 -0.0252 -5.3689 1.5102 -0.0035 3.3437 0.8232 -1.8469 -1.2167 -2.9845 -2.3260 6.2483 -1.1335 -1.2147 2.1206 -0.0000 0.0000 0.0000 -88.9994 7.5668 28.2974 18.3951 -28.6602 -4.7372 -0.0000 0.0000 -3.6880 23.7930 -14.9654 -6.4956 -7.1250 0.0000 -0.0000 -2.5482 13.7068 1.8737 -0.0000 0.0000 0.0000 90.3495 -4.3231 -1.9155 -10.3077 17.2195 -1.5648 0.0000 0.0000 9.8020 -19.4852 -31.4261 10.4527 7.1250 -0.0000 -0.0000 14.8363 -62.3264 -6.3232
-0.5067 16.4727 -41.8394 -0.2905 2.2960 18.1290 0.0000 0.0000 0.0000 -15.6945 -10.2843 -38.1943 13.8784 19.0767 71.8328 -0.0003 1.1003 -1.5203 0.0101 0.6489 1.7833 0.0000 0.0000 0.0000 23.5749 6.5655 -33.4751 -3.8041 -11.8951 35.3618 -1.1380 8.8999 -19.1486 -0.1656 2.6215 -7.2267 1.3470 -0.3135 -15.7150 2.5167 -0.7461 -4.5236 1.7465 -0.3592 4.0182 0.3040 -1.4855 -4.3410 -2.8513 -1.7950 7.2731 -1.0485 -0.9871 3.0573 0.0000 -0.0000 0.0000 -89.7678 6.3344 26.6356 17.0874 -26.9728 -4.1269 -0.0000 0.0000 -3.1372 23.9821 -16.9504 -7.3897 -7.1250 0.0000 -0.0000 -2.5681 11.5462 2.0042 0.0000 -0.0000 0.0000 89.6429 -1.7150 2.2400 -10.9436 18.2018 -1.7583 0.0000 0.0000 7.5764 -19.4888 -32.8826 10.8762 7.1250 -0.0000 -0.0000 16.0082 -63.7321 -7.3643
-0.4912 16.4985 -41.5786 -0.4547 1.3833 17.4624 0.0000 0.0000 0.0000 -15.9235 -9.6794 -38.4719 13.5360 18.9672 70.7822 0.0271 0.6333 -3.4096 0.0024 0.3181 0.8739 0.0000 0.0000 0.0000 23.8323 6.0857 -31.4533 -3.6953 -11.7435 34.8304 -1.2062 9.5156 -19.7569 -0.1722 2.6734 -7.3708 1.6958 0.2161 -15.9804 2.1947 -0.0877 -4.7667 1.3339 -0.0339 3.8873 0.6194 -1.6727 -1.5425 -2.8534 -2.0847 6.6572 -1.0625 -1.1007 2.3216 0.0000 0.0000 0.0000 -89.6078 8.5361 26.4156 16.3465 -25.9883 -3.7965 -0.0000 0.0000 -2.8282 24.1326 -17.7053 -7.7586 -7.1250 0.0000 -0.0000 -2.5310 10.7139 2.0184 0.0000 0.0000 0.0000 89.8451 -2.4420 5.1221 -12.0356 19.8579 -2.1144 0.0000 0.0000 5.0655 -19.3105 -33.7365 11.0123 7.1250 -0.0000 -0.0000 16.9705 -64.4984 -8.1223
-0.4974 16.5021 -41.3724 -0.3963 1.5624 17.2759 0.0000 0.0000 0.0000 -15.8289 -10.1118 -39.5099 13.1599 18.8391 69.6215 0.0887 -0.4559 -5.4785 0.0821 -1.8485 -5.0872 0.0000 0.0000 0.0000 24.0681 5.3343 -30.3375 -3.5914 -11.5959 34.3171 -1.2816 9.6707 -20.3599 -0.1373 2.3878 -6.5786 1.6711 0.1453 -16.1669 2.1017 -0.1946 -4.2022 1.2331 -0.0844 4.5859 0.7401 -1.5910 -3.0708 -2.8331 -1.9745 7.0153 -1.1022 -1.0541 2.7239 -0.0000 -0.0000 0.0000 -89.7336 8.1993 25.4985 15.4245 -24.7342 -3.4016 -0.0000 0.0000 -2.3018 24.3511 -18.3500 -8.1092 -7.1250 0.0000 -0.0000 -2.4443 9.9889 1.9851 -0.0000 -0.0000 0.0000 89.7528 -0.6535 7.9365 -12.9753 21.2510 -2.4443 0.0000 0.0000 2.7471 -19.2995 -34.4102 11.1939 7.1250 -0.0000 -0.0000 17.6197 -65.1327 -8.7011
